<svg width="153" height="142" viewBox="0 0 153 142" fill="none" xmlns="http://www.w3.org/2000/svg">
<g filter="url(#filter0_d_7_123)">
<g clip-path="url(#clip0_7_123)">
<path d="M78.4843 131.427C77.7503 131.427 77.0162 131.409 76.2634 131.371C67.7563 130.9 59.8326 127.795 55.0897 123.052L17.8618 85.8052C13.1565 81.0999 10.5968 73.4209 10.8603 64.7633C11.1238 56.3691 14.0599 48.5584 18.7463 43.8907L33.822 28.8151C34.2549 28.3822 34.9513 28.3822 35.3841 28.8151C35.817 29.248 35.817 29.9444 35.3841 30.3772L20.3085 45.4529C16.0173 49.7441 13.3259 56.9902 13.0812 64.8197C12.8365 72.7622 15.208 80.0083 19.4239 84.2242L56.6707 121.471C61.0372 125.838 68.415 128.717 76.3951 129.15C84.4694 129.583 91.7531 127.381 95.8937 123.24L111.421 107.713C111.854 107.28 112.55 107.28 112.983 107.713C113.416 108.146 113.416 108.842 112.983 109.275L97.4559 124.802C93.2211 129.075 86.3891 131.427 78.4843 131.427ZM126.835 94.557C126.553 94.557 126.271 94.444 126.045 94.237C125.612 93.8041 125.612 93.1077 126.045 92.6749L133.592 85.1276C137.771 80.9493 140.349 74.0797 140.462 66.7771C140.594 59.2675 138.203 52.5108 133.931 48.2196L94.915 9.20359C90.6427 4.93122 83.5283 2.31509 75.887 2.22099C68.2645 2.12688 61.2442 4.51715 57.1036 8.65778L47.3543 18.4071C46.9214 18.84 46.225 18.84 45.7922 18.4071C45.3593 17.9742 45.3593 17.2778 45.7922 16.8449L55.5415 7.09564C60.0773 2.54095 67.6998 -0.112819 75.9058 0.000107385C84.2435 0.113034 91.7343 2.89855 96.4772 7.62262L135.493 46.6386C140.198 51.3439 142.815 58.6841 142.683 66.7959C142.551 74.6631 139.728 82.0974 135.154 86.6898L127.607 94.237C127.4 94.444 127.118 94.557 126.835 94.557Z" fill="url(#paint0_linear_7_123)"/>
</g>
<path d="M106.62 83.3157C106.84 83.0906 107.049 82.854 107.234 82.5986C108.344 81.0587 108.763 79.1942 108.403 77.2826L107.251 72.7287C106.336 69.1086 103.686 66.303 100.325 65.099C102.125 63.7611 103.298 61.6266 103.298 59.2188C103.298 55.1789 100.01 51.8906 95.97 51.8906C91.9301 51.8906 88.6419 55.1789 88.6419 59.2188C88.6419 61.2685 89.4909 63.1225 90.8518 64.4531L82.884 64.4542C80.8636 64.4542 79.22 66.0967 79.22 68.1172C79.22 68.6815 79.3592 69.2101 79.5885 69.6875H77.1262V56.9355L80.0219 56.3566C84.4093 55.4793 87.595 51.5944 87.595 47.1179V36.7109C87.595 34.6905 85.9514 33.0469 83.9309 33.0469C81.9104 33.0469 80.2669 34.6905 80.2669 36.7109V45.6094C80.2669 47.3409 78.8578 48.75 77.1262 48.75H73.8694C75.2314 47.4184 76.0794 45.5654 76.0794 43.5156C76.0794 39.4757 72.7911 36.1875 68.7512 36.1875C64.7113 36.1875 61.4231 39.4757 61.4231 43.5156C61.4231 45.7371 62.4208 47.7272 63.9869 49.0724C61.8806 49.5749 59.9533 50.6689 58.4207 52.2413C57.7161 52.0152 56.9676 51.8906 56.1887 51.8906C52.1488 51.8906 48.8606 55.1789 48.8606 59.2188C48.8606 61.6266 50.0342 63.7611 51.8327 65.098C48.4712 66.303 45.8226 69.1075 44.9066 72.7276L43.7424 77.3433C43.3959 79.1931 43.8157 81.0587 44.9244 82.5976C45.1097 82.854 45.318 83.0906 45.5389 83.3147C44.47 83.4089 43.6262 84.2987 43.6262 85.3906V87.4844C43.6262 88.6391 44.5653 89.5781 45.72 89.5781H49.9075V95.8594H47.8137V97.9531H58.2825V95.8594H56.1887V89.5781H57.044L58.3746 94.6429C58.786 96.5608 60.5081 97.9531 62.4689 97.9531C62.7589 97.9531 63.052 97.9228 63.3441 97.861C64.4402 97.6255 65.3782 96.9795 65.9864 96.0394C66.5936 95.1014 66.7988 93.9802 66.5517 92.8391L64.1324 83.6361C63.6111 81.2063 62.023 79.2078 59.9365 78.0625H71.8919V97.9531H80.2669V78.0625H92.218C90.1336 79.2036 88.5508 81.1906 88.0368 83.59L85.5954 92.8842C85.3589 93.9802 85.5651 95.1004 86.1723 96.0394C86.7805 96.9795 87.7196 97.6265 88.8198 97.862C89.1067 97.9228 89.3998 97.9531 89.6898 97.9531C91.6506 97.9531 93.3727 96.5608 93.7715 94.689L95.1147 89.5781H97.0169V95.8594H94.9231V97.9531H105.392V95.8594H103.298V89.5781H106.439C107.593 89.5781 108.532 88.6391 108.532 87.4844V85.3906C108.532 84.2987 107.689 83.4089 106.62 83.3157ZM90.7356 59.2188C90.7356 56.3325 93.0837 53.9844 95.97 53.9844C98.8562 53.9844 101.204 56.3325 101.204 59.2188C101.204 62.105 98.8562 64.4531 95.97 64.4531C93.0837 64.4531 90.7356 62.105 90.7356 59.2188ZM82.8924 71.7812H84.469H93.1078L94.4237 75.9688H57.735L59.0509 71.7812H67.7064H69.2663H82.8924ZM69.7667 59.8636L68.7512 60.8791L67.7358 59.8636L68.3796 50.8438H69.1239L69.7667 59.8636ZM63.5169 43.5156C63.5169 40.6294 65.865 38.2812 68.7512 38.2812C71.6375 38.2812 73.9856 40.6294 73.9856 43.5156C73.9856 46.4019 71.6375 48.75 68.7512 48.75C65.865 48.75 63.5169 46.4019 63.5169 43.5156ZM66.2796 50.8647L65.5792 60.6676L68.7512 63.8397L71.9233 60.6676L71.2219 50.8438H77.1262C80.0125 50.8438 82.3606 48.4956 82.3606 45.6094V36.7109C82.3606 35.8452 83.0652 35.1406 83.9309 35.1406C84.7967 35.1406 85.5012 35.8452 85.5012 36.7109V47.1179C85.5012 50.5988 83.0243 53.6211 79.6105 54.3037L75.0325 55.2207V69.6875H72.5702C72.7995 69.2101 72.9387 68.6815 72.9387 68.1172C72.9387 66.0967 71.2951 64.4542 69.2747 64.4542L61.3069 64.4531C62.6678 63.1225 63.5169 61.2685 63.5169 59.2188C63.5169 56.7471 62.2826 54.5612 60.4024 53.2338C62.024 51.7912 64.0937 50.9526 66.2796 50.8647ZM50.9544 59.2188C50.9544 56.3325 53.3025 53.9844 56.1887 53.9844C59.075 53.9844 61.4231 56.3325 61.4231 59.2188C61.4231 62.105 59.075 64.4531 56.1887 64.4531C53.3025 64.4531 50.9544 62.105 50.9544 59.2188ZM54.095 95.8594H52.0012V89.5781H54.095V95.8594ZM45.72 87.4844V85.3906H50.6392L55.9563 85.4388L56.4944 87.4844H45.72ZM62.0983 84.1218L64.5177 93.3259C64.6349 93.8724 64.5334 94.4335 64.2298 94.9025C63.9262 95.3726 63.4561 95.6971 62.9107 95.8133C61.7832 96.0499 60.6631 95.3129 60.4118 94.1572L57.9925 84.9509C57.7842 83.993 56.9236 83.2969 55.9448 83.2969H52.0054H50.6392C48.9936 83.2969 47.4913 82.5777 46.6234 81.3727C45.8529 80.3039 45.5598 79.0099 45.7859 77.7935L46.9375 73.2406C47.9331 69.3002 51.4684 66.5469 55.5344 66.5469L69.2747 66.5479C70.1404 66.5479 70.845 67.2525 70.845 68.1172C70.845 68.983 70.1362 69.6875 69.2663 69.6875H67.7064H57.5141L54.5556 79.1052L55.9741 79.1125C58.9012 79.1272 61.4723 81.2146 62.0983 84.1218ZM78.1731 95.8594H73.9856V78.0625H78.1731V95.8594ZM91.7364 94.2032C91.4988 95.3066 90.342 96.0426 89.2543 95.8144C88.7047 95.6971 88.2336 95.3726 87.93 94.9025C87.6264 94.4335 87.5238 93.8735 87.6306 93.371L90.0719 84.0757C90.6864 81.2146 93.2575 79.1261 96.1846 79.1125L97.6031 79.1052L94.6446 69.6875H84.468H82.8914C82.0225 69.6875 81.3137 68.983 81.3137 68.1172C81.3137 67.2525 82.0183 66.5479 82.884 66.5479L94.9231 66.5469H96.6243C100.69 66.5469 104.226 69.3002 105.221 73.2416L106.359 77.7317C106.599 79.011 106.306 80.3039 105.535 81.3738C104.667 82.5777 103.165 83.2969 101.519 83.2969H99.1106H96.2139C95.234 83.2969 94.3735 83.993 94.1777 84.907L91.7364 94.2032ZM101.204 95.8594H99.1106V89.5781H101.204V95.8594ZM106.439 87.4844H95.6643L96.2139 85.3906H99.1106H101.519H106.439V87.4844Z" fill="url(#paint1_linear_7_123)"/>
<path d="M93.8762 41.4219H95.97V43.5156H93.8762V41.4219Z" fill="url(#paint2_linear_7_123)"/>
<path d="M98.0637 41.4219H100.157V43.5156H98.0637V41.4219Z" fill="url(#paint3_linear_7_123)"/>
<path d="M102.251 41.4219H104.345V43.5156H102.251V41.4219Z" fill="url(#paint4_linear_7_123)"/>
<path d="M105.392 37.2344H92.8294C91.0978 37.2344 89.6887 38.6435 89.6887 40.375V44.5625C89.6887 46.294 91.0978 47.7031 92.8294 47.7031H95.97V51.6467L102.541 47.7031H105.392C107.123 47.7031 108.532 46.294 108.532 44.5625V40.375C108.532 38.6435 107.123 37.2344 105.392 37.2344ZM106.439 44.5625C106.439 45.1404 105.97 45.6094 105.392 45.6094H101.961L98.0637 47.947V45.6094H92.8294C92.2515 45.6094 91.7825 45.1404 91.7825 44.5625V40.375C91.7825 39.7971 92.2515 39.3281 92.8294 39.3281H105.392C105.97 39.3281 106.439 39.7971 106.439 40.375V44.5625Z" fill="url(#paint5_linear_7_123)"/>
</g>
<defs>
<filter id="filter0_d_7_123" x="0.669575" y="-10.1717" width="152.185" height="151.771" filterUnits="userSpaceOnUse" color-interpolation-filters="sRGB">
<feFlood flood-opacity="0" result="BackgroundImageFix"/>
<feColorMatrix in="SourceAlpha" type="matrix" values="0 0 0 0 0 0 0 0 0 0 0 0 0 0 0 0 0 0 127 0" result="hardAlpha"/>
<feMorphology radius="2.9062" operator="dilate" in="SourceAlpha" result="effect1_dropShadow_7_123"/>
<feOffset/>
<feGaussianBlur stdDeviation="3.63275"/>
<feColorMatrix type="matrix" values="0 0 0 0 0 0 0 0 0 1 0 0 0 0 0.407843 0 0 0 1 0"/>
<feBlend mode="normal" in2="BackgroundImageFix" result="effect1_dropShadow_7_123"/>
<feBlend mode="normal" in="SourceGraphic" in2="effect1_dropShadow_7_123" result="shape"/>
</filter>
<linearGradient id="paint0_linear_7_123" x1="10.8415" y1="65.7179" x2="142.682" y2="65.7179" gradientUnits="userSpaceOnUse">
<stop stop-color="#8FFF70"/>
<stop offset="1" stop-color="#8FFFFF"/>
</linearGradient>
<linearGradient id="paint1_linear_7_123" x1="43.624" y1="66.0693" x2="108.532" y2="66.0693" gradientUnits="userSpaceOnUse">
<stop stop-color="#8FFF73"/>
<stop offset="1" stop-color="#8FFFF9"/>
</linearGradient>
<linearGradient id="paint2_linear_7_123" x1="93.8762" y1="42.4871" x2="95.97" y2="42.4871" gradientUnits="userSpaceOnUse">
<stop stop-color="#8FFF73"/>
<stop offset="1" stop-color="#8FFFF9"/>
</linearGradient>
<linearGradient id="paint3_linear_7_123" x1="98.0637" y1="42.4871" x2="100.157" y2="42.4871" gradientUnits="userSpaceOnUse">
<stop stop-color="#8FFF73"/>
<stop offset="1" stop-color="#8FFFF9"/>
</linearGradient>
<linearGradient id="paint4_linear_7_123" x1="102.251" y1="42.4871" x2="104.345" y2="42.4871" gradientUnits="userSpaceOnUse">
<stop stop-color="#8FFF73"/>
<stop offset="1" stop-color="#8FFFF9"/>
</linearGradient>
<linearGradient id="paint5_linear_7_123" x1="89.6887" y1="44.567" x2="108.532" y2="44.567" gradientUnits="userSpaceOnUse">
<stop stop-color="#8FFF73"/>
<stop offset="1" stop-color="#8FFFF9"/>
</linearGradient>
<clipPath id="clip0_7_123">
<rect width="131.841" height="131.427" fill="white" transform="translate(10.8413)"/>
</clipPath>
</defs>
</svg>
