<svg width="153" height="142" viewBox="0 0 153 142" fill="none" xmlns="http://www.w3.org/2000/svg">
<g filter="url(#filter0_d_7_47)">
<g clip-path="url(#clip0_7_47)">
<path d="M78.2224 131.427C77.4883 131.427 76.7543 131.409 76.0015 131.371C67.4944 130.9 59.5707 127.795 54.8278 123.052L17.5998 85.8052C12.8946 81.0999 10.3349 73.4209 10.5984 64.7633C10.8619 56.3691 13.798 48.5584 18.4844 43.8907L33.5601 28.8151C33.9929 28.3822 34.6893 28.3822 35.1222 28.8151C35.5551 29.248 35.5551 29.9444 35.1222 30.3772L20.0466 45.4529C15.7554 49.7441 13.064 56.9902 12.8193 64.8197C12.5746 72.7622 14.9461 80.0083 19.162 84.2242L56.4088 121.471C60.7753 125.838 68.1531 128.717 76.1332 129.15C84.2074 129.583 91.4912 127.381 95.6318 123.24L111.159 107.713C111.592 107.28 112.288 107.28 112.721 107.713C113.154 108.146 113.154 108.842 112.721 109.275L97.1939 124.802C92.9592 129.075 86.1272 131.427 78.2224 131.427ZM126.574 94.557C126.291 94.557 126.009 94.444 125.783 94.237C125.35 93.8041 125.35 93.1077 125.783 92.6749L133.33 85.1276C137.509 80.9493 140.087 74.0797 140.2 66.7771C140.332 59.2675 137.941 52.5108 133.669 48.2196L94.6531 9.20359C90.3807 4.93122 83.2664 2.31509 75.625 2.22099C68.0025 2.12688 60.9823 4.51715 56.8417 8.65778L47.0924 18.4071C46.6595 18.84 45.9631 18.84 45.5302 18.4071C45.0973 17.9742 45.0973 17.2778 45.5302 16.8449L55.2795 7.09564C59.8154 2.54095 67.4379 -0.112819 75.6439 0.000107385C83.9816 0.113034 91.4724 2.89855 96.2152 7.62262L135.231 46.6386C139.936 51.3439 142.553 58.6841 142.421 66.7959C142.289 74.6631 139.466 82.0974 134.892 86.6898L127.345 94.237C127.138 94.444 126.856 94.557 126.574 94.557Z" fill="url(#paint0_linear_7_47)"/>
</g>
<g clip-path="url(#clip1_7_47)">
<path d="M102.303 38.2763C95.0312 31.0046 85.3631 27 75.0793 27C64.7956 27 55.1275 31.0046 47.8556 38.2763C40.5838 45.548 36.5793 55.2163 36.5793 65.5C36.5793 75.7837 40.5839 85.4519 47.8556 92.7237C55.1273 99.9955 64.7956 104 75.0793 104C85.3631 104 95.0312 99.9954 102.303 92.7237C109.575 85.452 113.579 75.7837 113.579 65.5C113.579 55.2163 109.575 45.5481 102.303 38.2763ZM100.602 91.0222C93.7843 97.8394 84.7203 101.594 75.0793 101.594C65.4384 101.594 56.3744 97.8394 49.5572 91.0222C42.7399 84.205 38.9856 75.1409 38.9856 65.5C38.9856 55.8591 42.7399 46.795 49.5572 39.9778C56.3744 33.1606 65.4384 29.4062 75.0793 29.4062C84.7203 29.4062 93.7843 33.1606 100.602 39.9778C107.419 46.795 111.173 55.8591 111.173 65.5C111.173 75.1409 107.419 84.205 100.602 91.0222Z" fill="url(#paint1_linear_7_47)"/>
<path d="M43.7981 65.5C43.7981 48.2515 57.8309 34.2188 75.0793 34.2188C81.3007 34.2188 87.31 36.0401 92.4577 39.486C93.0098 39.8557 93.7571 39.7077 94.1268 39.1555C94.4964 38.6034 94.3484 37.8561 93.7962 37.4864C88.2512 33.7745 81.7789 31.8125 75.0793 31.8125C66.081 31.8125 57.6214 35.3166 51.2587 41.6793C44.8959 48.0421 41.3918 56.5017 41.3918 65.5C41.3918 73.8016 44.4379 81.7771 49.9689 87.9575C50.2065 88.2231 50.5356 88.3583 50.8659 88.3583C51.1514 88.3583 51.4382 88.2573 51.6677 88.0517C52.1628 87.6085 52.2051 86.8479 51.7619 86.3529C46.6265 80.6143 43.7981 73.2086 43.7981 65.5Z" fill="url(#paint2_linear_7_47)"/>
<path d="M103.093 46.7834C102.723 46.2312 101.976 46.0832 101.424 46.4529C100.872 46.8225 100.724 47.5698 101.093 48.1219C104.539 53.2695 106.361 59.2788 106.361 65.5C106.361 82.7485 92.3278 96.7812 75.0793 96.7812C67.9233 96.7812 60.9282 94.303 55.3828 89.803C54.8668 89.3843 54.1092 89.4631 53.6905 89.9791C53.2718 90.4951 53.3506 91.2527 53.8666 91.6714C59.8394 96.5182 67.3729 99.1875 75.0793 99.1875C84.0777 99.1875 92.5373 95.6834 98.9 89.3207C105.263 82.9579 108.767 74.4983 108.767 65.5C108.767 58.8005 106.805 52.3283 103.093 46.7834Z" fill="url(#paint3_linear_7_47)"/>
<path d="M95.9322 42.1827C96.7412 42.9065 97.5211 43.6812 98.2503 44.4849C98.4878 44.7466 98.8141 44.8795 99.1417 44.8795C99.43 44.8795 99.7195 44.7763 99.9499 44.5673C100.442 44.1208 100.479 43.3598 100.032 42.8677C99.2473 42.0027 98.4076 41.1689 97.5369 40.3896C97.0418 39.9465 96.2811 39.9886 95.8381 40.4837C95.395 40.9788 95.437 41.7395 95.9322 42.1827Z" fill="url(#paint4_linear_7_47)"/>
<path d="M75.0793 42.6406C75.7438 42.6406 76.2825 42.1019 76.2825 41.4375V37.8281C76.2825 37.1637 75.7438 36.625 75.0793 36.625C74.4149 36.625 73.8762 37.1637 73.8762 37.8281V41.4375C73.8762 42.1019 74.4149 42.6406 75.0793 42.6406Z" fill="url(#paint5_linear_7_47)"/>
<path d="M73.8762 89.5625V93.1719C73.8762 93.8363 74.4149 94.375 75.0793 94.375C75.7438 94.375 76.2825 93.8363 76.2825 93.1719V89.5625C76.2825 88.8981 75.7438 88.3594 75.0793 88.3594C74.4149 88.3594 73.8762 88.8981 73.8762 89.5625Z" fill="url(#paint6_linear_7_47)"/>
<path d="M52.22 65.5C52.22 64.8356 51.6813 64.2969 51.0168 64.2969H47.4075C46.743 64.2969 46.2043 64.8356 46.2043 65.5C46.2043 66.1644 46.743 66.7031 47.4075 66.7031H51.0168C51.6813 66.7031 52.22 66.1644 52.22 65.5Z" fill="url(#paint7_linear_7_47)"/>
<path d="M97.9387 65.5C97.9387 66.1644 98.4774 66.7031 99.1418 66.7031H102.751C103.416 66.7031 103.954 66.1644 103.954 65.5C103.954 64.8356 103.416 64.2969 102.751 64.2969H99.1418C98.4774 64.2969 97.9387 64.8356 97.9387 65.5Z" fill="url(#paint8_linear_7_47)"/>
<path d="M64.09 44.0597L62.2853 40.9338C61.9531 40.3583 61.2172 40.1614 60.6419 40.4935C60.0665 40.8257 59.8693 41.5616 60.2015 42.137L62.0062 45.2628C62.2291 45.6487 62.6335 45.8645 63.0493 45.8645C63.2534 45.8645 63.4603 45.8125 63.6498 45.7032C64.2251 45.371 64.4222 44.6351 64.09 44.0597Z" fill="url(#paint9_linear_7_47)"/>
<path d="M88.1525 85.7371C87.8203 85.1618 87.0843 84.9649 86.509 85.2968C85.9336 85.629 85.7365 86.3649 86.0687 86.9403L87.8734 90.0661C88.0963 90.452 88.5007 90.6679 88.9165 90.6679C89.1206 90.6679 89.3275 90.6158 89.517 90.5065C90.0924 90.1743 90.2896 89.4384 89.9573 88.863L88.1525 85.7371Z" fill="url(#paint10_linear_7_47)"/>
<path d="M51.116 80.5392C51.32 80.5392 51.527 80.4872 51.7165 80.3779L54.8423 78.5732C55.4177 78.241 55.6149 77.5051 55.2827 76.9297C54.9505 76.3543 54.2145 76.1575 53.6392 76.4894L50.5133 78.2941C49.9379 78.6263 49.7408 79.3621 50.073 79.9375C50.2957 80.3234 50.7001 80.5392 51.116 80.5392Z" fill="url(#paint11_linear_7_47)"/>
<path d="M95.9191 54.6721C96.1232 54.6721 96.3301 54.62 96.5196 54.5107L99.6455 52.706C100.221 52.3738 100.418 51.6379 100.086 51.0625C99.7536 50.4871 99.0178 50.2903 98.4424 50.6222L95.3165 52.4269C94.7411 52.7591 94.5439 53.4949 94.8762 54.0703C95.099 54.4562 95.5034 54.6721 95.9191 54.6721Z" fill="url(#paint12_linear_7_47)"/>
<path d="M89.5169 40.4935C88.9415 40.1611 88.2056 40.3583 87.8734 40.9339L86.0687 44.0597C85.7365 44.6351 85.9336 45.371 86.509 45.7032C86.6985 45.8127 86.9053 45.8646 87.1096 45.8646C87.5254 45.8646 87.9298 45.6487 88.1527 45.2628L89.9573 42.137C90.2894 41.5616 90.0922 40.8257 89.5169 40.4935Z" fill="url(#paint13_linear_7_47)"/>
<path d="M63.6497 85.2968C63.0743 84.9646 62.3384 85.1618 62.0062 85.7372L60.2015 88.863C59.8693 89.4384 60.0665 90.1743 60.6419 90.5065C60.8313 90.616 61.0381 90.6679 61.2424 90.6679C61.6582 90.6679 62.0626 90.452 62.2855 90.0661L64.0902 86.9403C64.4222 86.3649 64.2251 85.629 63.6497 85.2968Z" fill="url(#paint14_linear_7_47)"/>
<path d="M95.3165 78.5731L98.4424 80.3778C98.6319 80.4873 98.8386 80.5392 99.0429 80.5392C99.4587 80.5392 99.8631 80.3234 100.086 79.9375C100.418 79.3621 100.221 78.6262 99.6456 78.294L96.5198 76.4893C95.9444 76.157 95.2085 76.3543 94.8763 76.9297C94.5439 77.5051 94.7411 78.2409 95.3165 78.5731Z" fill="url(#paint15_linear_7_47)"/>
<path d="M54.8422 52.4268L51.7163 50.6221C51.1409 50.2898 50.4051 50.4871 50.0728 51.0625C49.7406 51.6379 49.9378 52.3737 50.5132 52.7059L53.6391 54.5106C53.8286 54.6201 54.0353 54.672 54.2396 54.672C54.6554 54.672 55.0598 54.4562 55.2827 54.0703C55.6147 53.4949 55.4176 52.759 54.8422 52.4268Z" fill="url(#paint16_linear_7_47)"/>
<path d="M83.4549 81.2085C83.659 81.2085 83.8659 81.1564 84.0554 81.0471C84.6308 80.7149 84.828 79.979 84.4958 79.4036L77.8214 67.8432C78.3615 67.212 78.6887 66.3938 78.6887 65.5C78.6887 63.9316 77.6828 62.5942 76.2825 62.0976V46.25C76.2825 45.5856 75.7438 45.0469 75.0793 45.0469C74.4149 45.0469 73.8762 45.5856 73.8762 46.25V62.0976C72.4759 62.5942 71.47 63.9316 71.47 65.5C71.47 67.4903 73.0891 69.1094 75.0793 69.1094C75.3045 69.1094 75.5247 69.0876 75.7385 69.048L82.4119 80.6067C82.6348 80.9926 83.0392 81.2085 83.4549 81.2085ZM73.8762 65.5C73.8762 64.8366 74.416 64.2969 75.0793 64.2969C75.7427 64.2969 76.2825 64.8366 76.2825 65.5C76.2825 66.1634 75.7427 66.7031 75.0793 66.7031C74.416 66.7031 73.8762 66.1634 73.8762 65.5Z" fill="url(#paint17_linear_7_47)"/>
</g>
</g>
<defs>
<filter id="filter0_d_7_47" x="0.407642" y="-10.1717" width="152.185" height="151.771" filterUnits="userSpaceOnUse" color-interpolation-filters="sRGB">
<feFlood flood-opacity="0" result="BackgroundImageFix"/>
<feColorMatrix in="SourceAlpha" type="matrix" values="0 0 0 0 0 0 0 0 0 0 0 0 0 0 0 0 0 0 127 0" result="hardAlpha"/>
<feMorphology radius="2.9062" operator="dilate" in="SourceAlpha" result="effect1_dropShadow_7_47"/>
<feOffset/>
<feGaussianBlur stdDeviation="3.63275"/>
<feColorMatrix type="matrix" values="0 0 0 0 0 0 0 0 0 1 0 0 0 0 0.407843 0 0 0 1 0"/>
<feBlend mode="normal" in2="BackgroundImageFix" result="effect1_dropShadow_7_47"/>
<feBlend mode="normal" in="SourceGraphic" in2="effect1_dropShadow_7_47" result="shape"/>
</filter>
<linearGradient id="paint0_linear_7_47" x1="10.5796" y1="65.7179" x2="142.42" y2="65.7179" gradientUnits="userSpaceOnUse">
<stop stop-color="#8FFF70"/>
<stop offset="1" stop-color="#8FFFFF"/>
</linearGradient>
<linearGradient id="paint1_linear_7_47" x1="36.5793" y1="66.1754" x2="113.579" y2="66.1754" gradientUnits="userSpaceOnUse">
<stop stop-color="#8FFF73"/>
<stop offset="1" stop-color="#8FFFF9"/>
</linearGradient>
<linearGradient id="paint2_linear_7_47" x1="41.3918" y1="60.5814" x2="94.3302" y2="60.5814" gradientUnits="userSpaceOnUse">
<stop stop-color="#8FFF73"/>
<stop offset="1" stop-color="#8FFFF9"/>
</linearGradient>
<linearGradient id="paint3_linear_7_47" x1="53.4215" y1="73.1828" x2="108.767" y2="73.1828" gradientUnits="userSpaceOnUse">
<stop stop-color="#8FFF73"/>
<stop offset="1" stop-color="#8FFFF9"/>
</linearGradient>
<linearGradient id="paint4_linear_7_47" x1="95.5314" y1="42.5233" x2="100.344" y2="42.5233" gradientUnits="userSpaceOnUse">
<stop stop-color="#8FFF73"/>
<stop offset="1" stop-color="#8FFFF9"/>
</linearGradient>
<linearGradient id="paint5_linear_7_47" x1="73.8762" y1="39.6856" x2="76.2825" y2="39.6856" gradientUnits="userSpaceOnUse">
<stop stop-color="#8FFF73"/>
<stop offset="1" stop-color="#8FFFF9"/>
</linearGradient>
<linearGradient id="paint6_linear_7_47" x1="73.8762" y1="91.42" x2="76.2825" y2="91.42" gradientUnits="userSpaceOnUse">
<stop stop-color="#8FFF73"/>
<stop offset="1" stop-color="#8FFFF9"/>
</linearGradient>
<linearGradient id="paint7_linear_7_47" x1="46.2043" y1="65.5211" x2="52.22" y2="65.5211" gradientUnits="userSpaceOnUse">
<stop stop-color="#8FFF73"/>
<stop offset="1" stop-color="#8FFFF9"/>
</linearGradient>
<linearGradient id="paint8_linear_7_47" x1="97.9387" y1="65.5211" x2="103.954" y2="65.5211" gradientUnits="userSpaceOnUse">
<stop stop-color="#8FFF73"/>
<stop offset="1" stop-color="#8FFFF9"/>
</linearGradient>
<linearGradient id="paint9_linear_7_47" x1="60.0401" y1="43.1469" x2="64.2514" y2="43.1469" gradientUnits="userSpaceOnUse">
<stop stop-color="#8FFF73"/>
<stop offset="1" stop-color="#8FFFF9"/>
</linearGradient>
<linearGradient id="paint10_linear_7_47" x1="85.9073" y1="87.9502" x2="90.1187" y2="87.9502" gradientUnits="userSpaceOnUse">
<stop stop-color="#8FFF73"/>
<stop offset="1" stop-color="#8FFFF9"/>
</linearGradient>
<linearGradient id="paint11_linear_7_47" x1="49.9116" y1="78.4706" x2="55.4441" y2="78.4706" gradientUnits="userSpaceOnUse">
<stop stop-color="#8FFF73"/>
<stop offset="1" stop-color="#8FFFF9"/>
</linearGradient>
<linearGradient id="paint12_linear_7_47" x1="94.7148" y1="52.6034" x2="100.247" y2="52.6034" gradientUnits="userSpaceOnUse">
<stop stop-color="#8FFF73"/>
<stop offset="1" stop-color="#8FFFF9"/>
</linearGradient>
<linearGradient id="paint13_linear_7_47" x1="85.9073" y1="43.1468" x2="90.1186" y2="43.1468" gradientUnits="userSpaceOnUse">
<stop stop-color="#8FFF73"/>
<stop offset="1" stop-color="#8FFFF9"/>
</linearGradient>
<linearGradient id="paint14_linear_7_47" x1="60.0401" y1="87.9502" x2="64.2514" y2="87.9502" gradientUnits="userSpaceOnUse">
<stop stop-color="#8FFF73"/>
<stop offset="1" stop-color="#8FFFF9"/>
</linearGradient>
<linearGradient id="paint15_linear_7_47" x1="94.7148" y1="78.4705" x2="100.247" y2="78.4705" gradientUnits="userSpaceOnUse">
<stop stop-color="#8FFF73"/>
<stop offset="1" stop-color="#8FFFF9"/>
</linearGradient>
<linearGradient id="paint16_linear_7_47" x1="49.9115" y1="52.6033" x2="55.4439" y2="52.6033" gradientUnits="userSpaceOnUse">
<stop stop-color="#8FFF73"/>
<stop offset="1" stop-color="#8FFFF9"/>
</linearGradient>
<linearGradient id="paint17_linear_7_47" x1="71.47" y1="63.4449" x2="84.6571" y2="63.4449" gradientUnits="userSpaceOnUse">
<stop stop-color="#8FFF73"/>
<stop offset="1" stop-color="#8FFFF9"/>
</linearGradient>
<clipPath id="clip0_7_47">
<rect width="131.841" height="131.427" fill="white" transform="translate(10.5793)"/>
</clipPath>
<clipPath id="clip1_7_47">
<rect width="77" height="77" fill="white" transform="translate(36.5793 27)"/>
</clipPath>
</defs>
</svg>
