<svg width="153" height="142" viewBox="0 0 153 142" fill="none" xmlns="http://www.w3.org/2000/svg">
<g filter="url(#filter0_d_7_149)">
<g clip-path="url(#clip0_7_149)">
<path d="M78.3256 131.427C77.5915 131.427 76.8575 131.409 76.1047 131.371C67.5976 130.9 59.6739 127.795 54.931 123.052L17.703 85.8052C12.9978 81.0999 10.4381 73.4209 10.7016 64.7633C10.9651 56.3691 13.9012 48.5584 18.5876 43.8907L33.6633 28.8151C34.0962 28.3822 34.7925 28.3822 35.2254 28.8151C35.6583 29.248 35.6583 29.9444 35.2254 30.3772L20.1498 45.4529C15.8586 49.7441 13.1672 56.9902 12.9225 64.8197C12.6778 72.7622 15.0493 80.0083 19.2652 84.2242L56.512 121.471C60.8785 125.838 68.2563 128.717 76.2364 129.15C84.3106 129.583 91.5944 127.381 95.735 123.24L111.262 107.713C111.695 107.28 112.392 107.28 112.824 107.713C113.257 108.146 113.257 108.842 112.824 109.275L97.2971 124.802C93.0624 129.075 86.2304 131.427 78.3256 131.427ZM126.677 94.557C126.394 94.557 126.112 94.444 125.886 94.237C125.453 93.8041 125.453 93.1077 125.886 92.6749L133.434 85.1276C137.612 80.9493 140.19 74.0797 140.303 66.7771C140.435 59.2675 138.045 52.5108 133.772 48.2196L94.7563 9.20359C90.4839 4.93122 83.3696 2.31509 75.7283 2.22099C68.1057 2.12688 61.0855 4.51715 56.9449 8.65778L47.1956 18.4071C46.7627 18.84 46.0663 18.84 45.6334 18.4071C45.2006 17.9742 45.2006 17.2778 45.6334 16.8449L55.3827 7.09564C59.9186 2.54095 67.5411 -0.112819 75.7471 0.000107385C84.0848 0.113034 91.5756 2.89855 96.3185 7.62262L135.334 46.6386C140.04 51.3439 142.656 58.6841 142.524 66.7959C142.392 74.6631 139.569 82.0974 134.996 86.6898L127.448 94.237C127.241 94.444 126.959 94.557 126.677 94.557Z" fill="url(#paint0_linear_7_149)"/>
<path d="M101.272 73.6472C101.358 73.3011 101.352 72.9298 101.24 72.5682V72.5678L100.279 69.4404C99.5019 66.9122 97.8728 64.6846 95.692 63.1685C95.6851 63.1644 95.6786 63.1595 95.6721 63.1551L94.4009 62.3173C92.9201 61.3407 90.9448 62.4075 90.9448 64.1845V65.5703C90.9448 66.6424 91.1345 67.6699 91.4957 68.6209C90.038 69.054 88.8534 70.1534 88.3211 71.6159C85.7206 72.5215 83.396 74.2168 81.7323 76.4318C79.9683 78.7804 79.0088 81.5637 78.9413 84.5002C76.1747 85.9095 73.4088 86.9101 70.6889 87.4862C72.8603 82.5201 72.9071 76.8445 69.2052 72.8965C70.7843 71.9105 72.2895 70.8818 73.6903 69.8255C75.7022 68.3085 77.5787 66.6798 79.2675 64.9849C85.7389 58.5102 89.4619 51.3157 92.6706 44.3869C93.4405 42.7244 93.7972 41.6145 95.2329 40.8605C96.1909 40.3567 96.7869 39.3671 96.7869 38.2742V34.2051H98.7341V39.0031C98.7341 39.9001 99.1318 40.7305 99.8225 41.2806C100.457 41.788 100.913 42.4604 101.175 43.279C103.331 50.0652 102.273 57.2289 99.2346 63.6661C98.9311 64.3044 99.3935 65.058 100.113 65.058C100.488 65.058 100.834 64.839 100.994 64.501L100.995 64.4998C102.005 62.3584 102.793 60.195 103.335 58.0682C104.69 52.7657 104.507 47.338 103.03 42.6867C102.657 41.5056 101.966 40.4908 101.032 39.7518C100.813 39.5787 100.682 39.298 100.682 39.0031V34.2051C100.682 33.1293 99.8079 32.2538 98.7341 32.2538H96.7869C95.7127 32.255 94.8401 33.1293 94.8392 34.2051V38.2742C94.8392 38.6346 94.639 38.9706 94.3314 39.1302C92.3005 40.1898 91.748 41.7445 90.905 43.5622C88.3536 49.0735 84.6522 56.8446 77.8915 63.6044C74.9709 66.5356 71.6221 69.1389 67.6703 71.5509C65.9782 70.3394 63.9225 69.6354 61.6613 69.5387C60.3949 69.4924 59.1449 69.6699 57.9244 70.0676C59.7433 66.4718 62.4376 63.9855 65.9648 62.657C67.0321 63.7271 68.3049 62.2414 67.4266 61.3622L66.9078 60.8422C66.6465 60.5806 66.2606 60.4896 65.9108 60.6058C62.1728 61.8546 59.1558 64.282 57.0197 67.7178C56.6841 65.1604 55.7611 62.607 53.2183 60.9937L49.9426 58.9157C49.2154 58.4542 48.3041 58.4948 47.6204 59.0185C46.9435 59.5369 46.6673 60.3973 46.9171 61.2107L47.8783 64.3385C48.4877 66.3215 49.6232 68.1176 51.1366 69.5326C47.3279 69.5549 43.6958 71.4587 41.6962 75.0663C40.0383 78.095 39.8396 81.7847 41.1218 85.7377C42.0846 88.6969 43.8275 91.5253 46.0298 93.7021C48.3529 95.9979 50.9842 97.3394 53.4283 97.4795C53.9357 97.5141 54.4456 97.5047 54.9412 97.4523C55.8021 97.3609 56.6756 97.3609 57.5357 97.4519C57.8391 97.4844 58.1459 97.4998 58.4514 97.4998C58.648 97.4998 58.8442 97.4933 59.0384 97.4803C61.5061 97.339 64.148 95.9861 66.4771 93.67C67.6561 92.4975 68.7014 91.1385 69.5655 89.6764C72.6897 89.1828 75.8712 88.159 79.0482 86.6237C79.9306 93.4916 85.8023 98.8157 92.892 98.8157C100.588 98.8157 106.85 92.5422 106.85 84.8313C106.85 80.4018 104.781 76.2855 101.272 73.6472ZM49.7403 63.764L48.7794 60.637C48.7717 60.6131 48.7672 60.5972 48.803 60.5692C48.8814 60.5095 48.6421 60.4002 52.1766 62.6428C54.589 64.1732 55.1302 66.8829 55.2399 70.1034L53.5664 69.0004C51.7472 67.732 50.3882 65.873 49.7403 63.764ZM69.5046 85.1336C67.8174 90.3203 63.253 95.2849 58.9174 95.5331C58.5237 95.5595 58.128 95.5526 57.7416 95.512C57.2427 95.4592 56.7414 95.4328 56.2393 95.4328C55.7375 95.4328 55.2354 95.4592 54.7373 95.512C54.3522 95.553 53.9565 95.5595 53.551 95.5323C51.5688 95.4189 49.3836 94.2757 47.3981 92.3131C45.4127 90.3512 43.8417 87.8015 42.9743 85.134C41.8624 81.7067 42.0111 78.5492 43.4021 76.0093C44.9179 73.2751 47.6484 71.6273 50.8884 71.4888C52.3875 71.4339 53.8679 71.767 55.2979 72.4772L55.7042 72.7449C56.0841 72.996 56.609 72.9586 56.9486 72.5958C58.4497 71.804 60.011 71.4323 61.5845 71.4888C67.6459 71.7476 72.0344 77.3357 69.5046 85.1336ZM92.892 64.1845C92.892 63.9578 93.1398 63.8217 93.3308 63.9473C94.5016 64.7192 95.9971 65.5512 97.3142 67.628C97.3435 67.8978 97.4824 68.1521 97.7144 68.3187C98 68.8602 98.2376 69.4274 98.418 70.0144L99.3793 73.1423C99.3862 73.1658 99.3914 73.1817 99.3549 73.2097C99.3069 73.2463 99.2781 73.2276 99.257 73.2142L95.9813 71.1357C92.6483 69.0215 92.892 65.9461 92.892 64.1845ZM92.892 96.864C86.2695 96.864 80.882 91.4664 80.882 84.8313C80.882 79.9809 83.7096 75.7159 88.0485 73.8154C88.1225 74.5166 88.3496 75.1984 88.7233 75.8175C88.9062 76.121 89.2275 76.288 89.5578 76.288C89.7293 76.288 89.9031 76.2429 90.0604 76.1474C90.5207 75.8687 90.6685 75.269 90.3903 74.8079C89.9913 74.1478 89.8715 73.3681 90.0518 72.6125C90.2879 71.6228 91.0037 70.8562 91.9182 70.5349V73.2552C91.9182 73.7894 92.3293 74.2554 92.8624 74.2717C93.4137 74.2879 93.8658 73.8451 93.8658 73.2966V71.9885C94.4756 72.5146 94.8961 72.7571 95.8106 73.3377C95.8037 73.854 95.6619 74.3643 95.3942 74.8079C95.1159 75.269 95.2634 75.8687 95.7237 76.1474C95.8813 76.2429 96.0548 76.288 96.2266 76.288C96.5561 76.288 96.8775 76.1206 97.0611 75.8175C97.3122 75.4015 97.4978 74.9501 97.6144 74.4817L98.2149 74.8632C98.5521 75.0769 98.9287 75.1825 99.3041 75.1825C99.5154 75.1825 99.7262 75.1484 99.9297 75.0814C103.053 77.3459 104.902 80.9482 104.902 84.8317C104.902 91.4664 99.5149 96.864 92.892 96.864Z" fill="url(#paint1_linear_7_149)"/>
<path d="M58.7211 59.7355C62.8378 59.7355 66.187 56.3798 66.187 52.255C66.187 48.1306 62.8378 44.7753 58.7211 44.7753C54.6045 44.7753 51.2556 48.1306 51.2556 52.255C51.2556 56.3798 54.6045 59.7355 58.7211 59.7355ZM58.7211 46.7266C61.764 46.7266 64.2394 49.2068 64.2394 52.255C64.2394 55.3036 61.764 57.7839 58.7211 57.7839C55.6786 57.7839 53.2028 55.3036 53.2028 52.255C53.2028 49.2068 55.6786 46.7266 58.7211 46.7266Z" fill="url(#paint2_linear_7_149)"/>
<path d="M56.7646 51.6443C56.9547 51.8345 57.2041 51.9299 57.4532 51.9299C57.7022 51.9299 57.9517 51.8345 58.1418 51.6443L58.427 51.3583L58.7126 51.6443C58.9023 51.8345 59.1518 51.9299 59.4008 51.9299C59.6499 51.9299 59.8993 51.8345 60.0894 51.6443C60.4693 51.2629 60.4693 50.6453 60.0894 50.2643L59.8042 49.9787L60.0894 49.6926C60.4693 49.3116 60.4693 48.6936 60.0894 48.313C59.7092 47.9319 59.0929 47.9319 58.7126 48.313L58.427 48.5986L58.1418 48.313C57.7611 47.9319 57.1448 47.9319 56.7646 48.313C56.3847 48.6936 56.3847 49.3116 56.7646 49.6926L57.0498 49.9787L56.7646 50.2643C56.3847 50.6453 56.3847 51.2633 56.7646 51.6443Z" fill="url(#paint3_linear_7_149)"/>
<path d="M76.4724 43.2087C78.0987 41.5791 78.5302 39.3138 77.7968 37.2467L78.0833 37.1281C78.5801 36.9217 78.8162 36.3509 78.6102 35.8533C78.4042 35.3552 77.8346 35.1191 77.3378 35.3251L76.8665 35.5205C76.8576 35.5079 76.849 35.4949 76.8393 35.4819L77.2009 35.1195C77.5811 34.7385 77.5811 34.1205 77.2009 33.7399C76.8206 33.3588 76.2039 33.3588 75.8236 33.7403L75.4608 34.1035C75.4482 34.0937 75.4356 34.0852 75.4235 34.0754L75.6189 33.6025C75.8244 33.1049 75.5888 32.5341 75.0919 32.3281C74.5955 32.1217 74.0255 32.3586 73.8195 32.8562L73.7017 33.1414C71.6212 32.3959 69.3762 32.8408 67.7507 34.4695C65.4773 36.7474 63.0767 42.7569 65.639 45.3245C68.2167 47.9071 74.2258 45.4594 76.4724 43.2087ZM66.7989 40.1637C67.2689 38.5086 68.2045 36.7751 69.128 35.8496C70.7794 34.1949 73.1813 34.4837 74.8197 36.1254C76.5488 37.8578 76.6646 40.2563 75.0952 41.829C74.1722 42.7537 72.4415 43.6917 70.7896 44.1626C69.0557 44.6562 67.6451 44.5749 67.0162 43.9444C66.3873 43.3143 66.3061 41.9009 66.7989 40.1637Z" fill="url(#paint4_linear_7_149)"/>
<path d="M72.06 40.2706C72.4399 39.8895 72.4399 39.272 72.06 38.8905C71.6798 38.5099 71.0635 38.5099 70.6828 38.8905C70.3025 39.272 70.3025 39.8895 70.6828 40.2706C71.0635 40.6517 71.6798 40.6517 72.06 40.2706Z" fill="url(#paint5_linear_7_149)"/>
<path d="M69.3055 43.0303C69.6862 42.6493 69.6862 42.0317 69.3055 41.6502C68.9253 41.2692 68.309 41.2692 67.9283 41.6502C67.548 42.0317 67.548 42.6493 67.9283 43.0303C68.309 43.4114 68.9253 43.4114 69.3055 43.0303Z" fill="url(#paint6_linear_7_149)"/>
<path d="M69.3055 40.2706C69.6862 39.8895 69.6862 39.272 69.3055 38.8905C68.9253 38.5099 68.309 38.5099 67.9283 38.8905C67.548 39.272 67.548 39.8895 67.9283 40.2706C68.309 40.6517 68.9253 40.6517 69.3055 40.2706Z" fill="url(#paint7_linear_7_149)"/>
<path d="M72.06 43.0303C72.4399 42.6493 72.4399 42.0317 72.06 41.6502C71.6798 41.2692 71.0635 41.2692 70.6828 41.6502C70.3025 42.0317 70.3025 42.6493 70.6828 43.0303C71.0635 43.4114 71.6798 43.4114 72.06 43.0303Z" fill="url(#paint8_linear_7_149)"/>
<path d="M74.8141 40.2706C75.1943 39.8895 75.1943 39.272 74.8141 38.8905C74.4342 38.5099 73.8171 38.5099 73.4372 38.8905C73.057 39.272 73.057 39.8895 73.4372 40.2706C73.8171 40.6517 74.4338 40.6517 74.8141 40.2706Z" fill="url(#paint9_linear_7_149)"/>
<path d="M72.06 37.5108C72.4399 37.1301 72.4399 36.5118 72.06 36.1311C71.6798 35.7501 71.0635 35.7501 70.6828 36.1311C70.3025 36.5126 70.3025 37.1301 70.6828 37.5108C71.0635 37.8923 71.6798 37.8923 72.06 37.5108Z" fill="url(#paint10_linear_7_149)"/>
<path d="M76.4513 45.8981C76.0698 46.1269 75.7481 46.4385 75.5072 46.8033C74.4399 46.2711 73.0757 46.4023 72.125 47.3546C71.1894 48.2927 71.0395 49.6565 71.5839 50.7433C70.9911 51.1312 70.5499 51.7289 70.3606 52.4378C70.1729 53.1402 70.2521 53.8691 70.5771 54.5118C69.9019 54.9538 69.4351 55.6595 69.2946 56.4594C69.0272 57.9748 69.9909 59.4459 71.488 59.8086C72.7324 60.1101 73.9585 59.5718 74.6199 58.5671C75.4726 58.9977 76.5305 59.0087 77.4308 58.4676C77.8147 58.2364 78.1389 57.9215 78.3807 57.5527C79.4435 58.0869 80.8073 57.9683 81.7632 57.0111C82.694 56.0779 82.8496 54.7161 82.3056 53.6257C82.9296 53.2194 83.3822 52.582 83.5557 51.8219C83.6991 51.1946 83.6215 50.5568 83.3737 49.9974C83.8624 49.8089 84.1179 49.2661 83.9449 48.7668C83.7681 48.2581 83.2132 47.9896 82.7045 48.1659L82.1309 48.3662L82.5152 47.9807C82.8955 47.6 82.8955 46.9821 82.5152 46.601C82.135 46.2203 81.5182 46.2203 81.138 46.601L80.7537 46.9865L80.9531 46.4113C81.1299 45.9022 80.8617 45.346 80.3535 45.1689C79.8583 44.9966 79.3183 45.2493 79.1286 45.734C78.2958 45.368 77.3012 45.3887 76.4513 45.8981ZM78.8946 48.6664C78.8751 48.7379 78.8653 48.8094 78.8625 48.8805L78.5086 49.2356C77.623 50.1229 78.9157 51.5867 79.9623 50.5385C80.3003 50.1985 80.6647 50.1278 81.0206 50.2476C81.9221 50.5515 81.8949 51.8987 80.9259 52.1237C79.9659 52.3472 79.645 53.5501 80.3636 54.2266C80.5546 54.407 80.6667 54.6649 80.6708 54.9351C80.6842 55.7992 79.6019 56.2697 78.9819 55.6075C78.3136 54.8928 77.1078 55.2158 76.8868 56.171C76.715 56.9124 75.7716 57.2061 75.224 56.6191C74.5537 55.9028 73.3511 56.2278 73.1277 57.1866C73.0147 57.6705 72.5097 58.0491 71.9458 57.9122C71.1264 57.7131 70.9139 56.5996 71.657 56.1356C72.0694 55.8776 72.4224 56.0324 72.5666 56.0544C73.7663 56.3127 74.9408 55.7683 75.5685 54.7608C75.6559 54.8075 75.746 54.8502 75.8387 54.8884C77.8891 55.7338 80.1093 53.9747 79.0108 52.8741C78.6305 52.4934 78.0138 52.4934 77.6335 52.8741C77.0384 53.4709 76.0556 53.0606 75.9768 52.2997C75.9094 50.7351 73.9808 50.989 74.0239 52.2156C74.0336 53.0338 74.2189 53.5477 73.707 53.9666C73.4702 54.1612 73.1553 54.2091 72.9469 54.1396C72.7169 54.1396 72.047 53.672 72.242 52.9424C72.335 52.5934 72.6117 52.3253 72.9635 52.2424C73.9191 52.0189 74.2449 50.8127 73.5266 50.1412C73.3341 49.9612 73.2211 49.7032 73.2162 49.4327C73.2016 48.5637 74.2977 48.0981 74.9043 48.7457C75.5726 49.4595 76.7743 49.1369 76.9977 48.1842C77.0571 47.9331 77.222 47.7101 77.4507 47.5732C78.184 47.1336 79.1233 47.8088 78.8946 48.6664Z" fill="url(#paint11_linear_7_149)"/>
<path d="M87.8279 78.34C87.8279 78.8783 87.3912 79.315 86.8533 79.315C86.3142 79.315 85.8783 78.8783 85.8783 78.34C85.8783 77.8013 86.3142 77.3649 86.8533 77.3649C87.3912 77.3649 87.8279 77.8013 87.8279 78.34Z" fill="url(#paint12_linear_7_149)"/>
<path d="M90.428 81.9801C90.428 82.5192 89.9913 82.9551 89.453 82.9551C88.9147 82.9551 88.4779 82.5192 88.4779 81.9801C88.4779 81.4418 88.9147 81.0051 89.453 81.0051C89.9913 81.0051 90.428 81.4418 90.428 81.9801Z" fill="url(#paint13_linear_7_149)"/>
<path d="M85.2274 84.8402C85.2274 85.3793 84.7915 85.8152 84.2524 85.8152C83.7141 85.8152 83.2774 85.3793 83.2774 84.8402C83.2774 84.3019 83.7141 83.8652 84.2524 83.8652C84.7915 83.8652 85.2274 84.3019 85.2274 84.8402Z" fill="url(#paint14_linear_7_149)"/>
</g>
</g>
<defs>
<filter id="filter0_d_7_149" x="0.510853" y="-10.1717" width="152.185" height="151.771" filterUnits="userSpaceOnUse" color-interpolation-filters="sRGB">
<feFlood flood-opacity="0" result="BackgroundImageFix"/>
<feColorMatrix in="SourceAlpha" type="matrix" values="0 0 0 0 0 0 0 0 0 0 0 0 0 0 0 0 0 0 127 0" result="hardAlpha"/>
<feMorphology radius="2.9062" operator="dilate" in="SourceAlpha" result="effect1_dropShadow_7_149"/>
<feOffset/>
<feGaussianBlur stdDeviation="3.63275"/>
<feColorMatrix type="matrix" values="0 0 0 0 0 0 0 0 0 1 0 0 0 0 0.407843 0 0 0 1 0"/>
<feBlend mode="normal" in2="BackgroundImageFix" result="effect1_dropShadow_7_149"/>
<feBlend mode="normal" in="SourceGraphic" in2="effect1_dropShadow_7_149" result="shape"/>
</filter>
<linearGradient id="paint0_linear_7_149" x1="10.6828" y1="65.7179" x2="142.523" y2="65.7179" gradientUnits="userSpaceOnUse">
<stop stop-color="#8FFF70"/>
<stop offset="1" stop-color="#8FFFFF"/>
</linearGradient>
<linearGradient id="paint1_linear_7_149" x1="40.2874" y1="66.1186" x2="106.85" y2="66.1186" gradientUnits="userSpaceOnUse">
<stop stop-color="#8FFF73"/>
<stop offset="1" stop-color="#8FFFF9"/>
</linearGradient>
<linearGradient id="paint2_linear_7_149" x1="51.2556" y1="52.3866" x2="66.187" y2="52.3866" gradientUnits="userSpaceOnUse">
<stop stop-color="#8FFF73"/>
<stop offset="1" stop-color="#8FFFF9"/>
</linearGradient>
<linearGradient id="paint3_linear_7_149" x1="56.4797" y1="50.0128" x2="60.3743" y2="50.0128" gradientUnits="userSpaceOnUse">
<stop stop-color="#8FFF73"/>
<stop offset="1" stop-color="#8FFFF9"/>
</linearGradient>
<linearGradient id="paint4_linear_7_149" x1="64.5351" y1="39.4672" x2="78.6846" y2="39.4672" gradientUnits="userSpaceOnUse">
<stop stop-color="#8FFF73"/>
<stop offset="1" stop-color="#8FFFF9"/>
</linearGradient>
<linearGradient id="paint5_linear_7_149" x1="70.3976" y1="39.5979" x2="72.3449" y2="39.5979" gradientUnits="userSpaceOnUse">
<stop stop-color="#8FFF73"/>
<stop offset="1" stop-color="#8FFFF9"/>
</linearGradient>
<linearGradient id="paint6_linear_7_149" x1="67.6431" y1="42.3574" x2="69.591" y2="42.3574" gradientUnits="userSpaceOnUse">
<stop stop-color="#8FFF73"/>
<stop offset="1" stop-color="#8FFFF9"/>
</linearGradient>
<linearGradient id="paint7_linear_7_149" x1="67.6431" y1="39.5979" x2="69.591" y2="39.5979" gradientUnits="userSpaceOnUse">
<stop stop-color="#8FFF73"/>
<stop offset="1" stop-color="#8FFFF9"/>
</linearGradient>
<linearGradient id="paint8_linear_7_149" x1="70.3976" y1="42.3574" x2="72.3449" y2="42.3574" gradientUnits="userSpaceOnUse">
<stop stop-color="#8FFF73"/>
<stop offset="1" stop-color="#8FFFF9"/>
</linearGradient>
<linearGradient id="paint9_linear_7_149" x1="73.152" y1="39.5979" x2="75.0993" y2="39.5979" gradientUnits="userSpaceOnUse">
<stop stop-color="#8FFF73"/>
<stop offset="1" stop-color="#8FFFF9"/>
</linearGradient>
<linearGradient id="paint10_linear_7_149" x1="70.3976" y1="36.8383" x2="72.3449" y2="36.8383" gradientUnits="userSpaceOnUse">
<stop stop-color="#8FFF73"/>
<stop offset="1" stop-color="#8FFFF9"/>
</linearGradient>
<linearGradient id="paint11_linear_7_149" x1="69.2501" y1="52.6331" x2="83.999" y2="52.6331" gradientUnits="userSpaceOnUse">
<stop stop-color="#8FFF73"/>
<stop offset="1" stop-color="#8FFFF9"/>
</linearGradient>
<linearGradient id="paint12_linear_7_149" x1="85.8783" y1="78.3571" x2="87.8279" y2="78.3571" gradientUnits="userSpaceOnUse">
<stop stop-color="#8FFF73"/>
<stop offset="1" stop-color="#8FFFF9"/>
</linearGradient>
<linearGradient id="paint13_linear_7_149" x1="88.4779" y1="81.9972" x2="90.428" y2="81.9972" gradientUnits="userSpaceOnUse">
<stop stop-color="#8FFF73"/>
<stop offset="1" stop-color="#8FFFF9"/>
</linearGradient>
<linearGradient id="paint14_linear_7_149" x1="83.2774" y1="84.8573" x2="85.2274" y2="84.8573" gradientUnits="userSpaceOnUse">
<stop stop-color="#8FFF73"/>
<stop offset="1" stop-color="#8FFFF9"/>
</linearGradient>
<clipPath id="clip0_7_149">
<rect width="131.841" height="131.427" fill="white" transform="translate(10.6826)"/>
</clipPath>
</defs>
</svg>
