<svg width="154" height="142" viewBox="0 0 154 142" fill="none" xmlns="http://www.w3.org/2000/svg">
<g filter="url(#filter0_d_7_94)">
<g clip-path="url(#clip0_7_94)">
<path d="M78.643 131.427C77.909 131.427 77.175 131.409 76.4221 131.371C67.915 130.9 59.9914 127.795 55.2485 123.052L18.0205 85.8052C13.3152 81.0999 10.7556 73.4209 11.0191 64.7633C11.2826 56.3691 14.2186 48.5584 18.9051 43.8907L33.9807 28.8151C34.4136 28.3822 35.11 28.3822 35.5429 28.8151C35.9757 29.248 35.9757 29.9444 35.5429 30.3772L20.4672 45.4529C16.176 49.7441 13.4846 56.9902 13.2399 64.8197C12.9953 72.7622 15.3667 80.0083 19.5826 84.2242L56.8294 121.471C61.1959 125.838 68.5738 128.717 76.5539 129.15C84.6281 129.583 91.9118 127.381 96.0525 123.24L111.58 107.713C112.013 107.28 112.709 107.28 113.142 107.713C113.575 108.146 113.575 108.842 113.142 109.275L97.6146 124.802C93.3799 129.075 86.5478 131.427 78.643 131.427ZM126.994 94.557C126.712 94.557 126.43 94.444 126.204 94.237C125.771 93.8041 125.771 93.1077 126.204 92.6749L133.751 85.1276C137.929 80.9493 140.508 74.0797 140.621 66.7771C140.752 59.2675 138.362 52.5108 134.09 48.2196L95.0738 9.20359C90.8014 4.93122 83.687 2.31509 76.0457 2.22099C68.4232 2.12688 61.4029 4.51715 57.2623 8.65778L47.513 18.4071C47.0801 18.84 46.3838 18.84 45.9509 18.4071C45.518 17.9742 45.518 17.2778 45.9509 16.8449L55.7002 7.09564C60.236 2.54095 67.8586 -0.112819 76.0645 0.000107385C84.4022 0.113034 91.893 2.89855 96.6359 7.62262L135.652 46.6386C140.357 51.3439 142.973 58.6841 142.842 66.7959C142.71 74.6631 139.887 82.0974 135.313 86.6898L127.766 94.237C127.559 94.444 127.277 94.557 126.994 94.557Z" fill="url(#paint0_linear_7_94)"/>
</g>
<path d="M108.71 58.986H104.836V57.6966C104.836 56.434 103.809 55.4066 102.546 55.4066H99.6854C98.4227 55.4066 97.3953 56.434 97.3953 57.6966V58.986H94.4066L92.1945 56.6262C91.6633 56.0596 91.3708 55.32 91.3708 54.5433V52.9203H99.8072C101.07 52.9203 102.097 51.8929 102.097 50.6302V41.3798C102.097 40.8377 101.658 40.3983 101.116 40.3983C100.574 40.3983 100.134 40.8377 100.134 41.3798V46.7177H86.7214V45.7244C86.7214 42.2971 83.9329 39.5086 80.5056 39.5086H75.704V33.29C75.704 33.1097 75.8508 32.9629 76.0311 32.9629H99.8072C99.9875 32.9629 100.134 33.1097 100.134 33.29V36.8573C100.134 37.3993 100.574 37.8387 101.116 37.8387C101.658 37.8387 102.097 37.3993 102.097 36.8573V33.29C102.097 32.0274 101.07 31 99.8072 31H76.0311C74.7684 31 73.7411 32.0274 73.7411 33.29V39.5085H64.9001C61.4727 39.5085 58.6843 42.297 58.6843 45.7243V48.7707C58.6843 49.3127 59.1237 49.7521 59.6657 49.7521C60.2077 49.7521 60.6471 49.3127 60.6471 48.7707V45.7243C60.6471 43.3793 62.5551 41.4714 64.9001 41.4714H80.5054C82.8504 41.4714 84.7584 43.3793 84.7584 45.7243V68.1936C84.7584 69.0957 84.0247 69.8294 83.1226 69.8294H76.0789V65.3357C76.0789 64.073 75.0515 63.0456 73.7888 63.0456H71.6168C70.3542 63.0456 69.3268 64.073 69.3268 65.3357V69.8294H62.2829C61.3809 69.8294 60.6471 69.0957 60.6471 68.1936V53.4816C60.6471 52.9396 60.2077 52.5002 59.6657 52.5002C59.1237 52.5002 58.6843 52.9396 58.6843 53.4816V58.986H56.4709V52.1352C56.4709 51.4498 55.9132 50.8921 55.2277 50.8921H55.0092V47.699C55.0092 45.9889 53.6179 44.5976 51.9078 44.5976C50.1978 44.5976 48.8065 45.9889 48.8065 47.699V50.8921H48.5879C47.9025 50.8921 47.3448 51.4498 47.3448 52.1352V58.986H46.29C45.0274 58.986 44 60.0134 44 61.276V64.2054C44 65.4681 45.0274 66.4955 46.29 66.4955H47.3448V96.3643C47.3448 97.2663 48.0785 98 48.9805 98H52.7571C53.6591 98 54.3929 97.2663 54.3929 96.3643V82.4146H58.6843V83.5618C58.6843 84.4638 59.418 85.1975 60.32 85.1975H69.3268V85.8935L61.012 95.2797C60.5795 95.7679 60.4772 96.4409 60.7448 97.0357C61.0124 97.6305 61.5842 98 62.2364 98H65.4739C65.9466 98 66.3959 97.7956 66.7066 97.4394L69.3268 94.4353V95.7098C69.3268 96.9725 70.3542 97.9999 71.6168 97.9999H73.7888C75.0515 97.9999 76.0789 96.9725 76.0789 95.7098V94.4353L78.6992 97.4395C79.01 97.7956 79.4592 97.9999 79.9318 97.9999H83.1692C83.8216 97.9999 84.3932 97.6303 84.6608 97.0356C84.9284 96.4408 84.8262 95.7678 84.3935 95.2796L76.0787 85.8934V85.1975H85.0855C85.9875 85.1975 86.7213 84.4638 86.7213 83.5618V82.4146H100.607V96.3643C100.607 97.2663 101.341 98 102.243 98H106.019C106.922 98 107.655 97.2663 107.655 96.3643V76.7979C107.655 76.2559 107.216 75.8165 106.674 75.8165C106.132 75.8165 105.692 76.2559 105.692 76.7979V96.0371H102.57V66.4955H105.692V72.087C105.692 72.629 106.132 73.0684 106.674 73.0684C107.216 73.0684 107.655 72.629 107.655 72.087V66.4955H108.71C109.973 66.4955 111 65.4681 111 64.2054V61.276C111 60.0134 109.973 58.986 108.71 58.986ZM99.3582 57.6966C99.3582 57.5163 99.5051 57.3695 99.6854 57.3695H102.546C102.727 57.3695 102.873 57.5163 102.873 57.6966V58.986H99.3582V57.6966ZM90.7623 57.9687L91.716 58.986H86.7214V52.9203H89.4079V54.5434C89.4079 55.8206 89.8888 57.0371 90.7623 57.9687ZM100.134 48.6804V50.6302C100.134 50.8105 99.9875 50.9574 99.8072 50.9574H86.7214V48.6804H100.134ZM71.2897 65.3357C71.2897 65.1553 71.4365 65.0085 71.6168 65.0085H73.7888C73.9692 65.0085 74.116 65.1553 74.116 65.3357V75.5547H71.2897V65.3357ZM49.3077 52.8551H54.508V54.6689H49.3077V52.8551ZM50.7694 47.699C50.7694 47.0712 51.2801 46.5605 51.9078 46.5605C52.5356 46.5605 53.0463 47.0712 53.0463 47.699V50.8921H50.7694V47.699ZM49.3077 56.6318H54.508V58.986H49.3077V56.6318ZM45.9629 64.2054V61.276C45.9629 61.0957 46.1097 60.9489 46.29 60.9489H58.6843V64.5326H46.29C46.1097 64.5326 45.9629 64.3858 45.9629 64.2054ZM52.43 96.0371H49.3077V66.4955H52.43V96.0371ZM54.3929 80.4518V66.4955H58.6843V68.1936C58.6843 70.178 60.2985 71.7923 62.2829 71.7923H69.3268V75.5546H63.2075C62.3327 75.5546 61.4891 75.8727 60.8319 76.4502L59.2403 77.849C58.887 78.1595 58.6844 78.6073 58.6844 79.0776V80.4516H54.3929V80.4518ZM65.3251 96.0371H62.9634L69.3268 88.8537V91.449L65.3251 96.0371ZM82.4423 96.0371H80.0805L76.0789 91.449V88.8537L82.4423 96.0371ZM74.116 95.71C74.116 95.8903 73.9692 96.0371 73.7888 96.0371H71.6168C71.4365 96.0371 71.2897 95.8903 71.2897 95.71V85.1975H74.116V95.71ZM84.7585 83.2346H75.0987C75.0983 83.2346 75.0979 83.2346 75.0974 83.2346C75.0969 83.2346 75.0966 83.2346 75.0961 83.2346H70.3095C70.3091 83.2346 70.3088 83.2346 70.3082 83.2346C70.3077 83.2346 70.3074 83.2346 70.3069 83.2346H60.6471V79.2257L62.1276 77.9247C62.4263 77.6622 62.8097 77.5176 63.2074 77.5176H82.1981C82.5958 77.5176 82.9792 77.6622 83.2778 77.9247L84.7582 79.2257V83.2346H84.7585ZM100.607 80.4518H86.7214V79.0777C86.7214 78.6074 86.5188 78.1596 86.1655 77.8491L84.5739 76.4503C83.9168 75.8727 83.073 75.5547 82.1982 75.5547H76.0789V71.7924H83.1228C85.1071 71.7924 86.7214 70.1781 86.7214 68.1938V66.4956H100.607V80.4518ZM108.71 60.9489C108.89 60.9489 109.037 61.0957 109.037 61.276V64.2054C109.037 64.3858 108.89 64.5326 108.71 64.5326H86.7214V60.9489H108.71Z" fill="url(#paint1_linear_7_94)"/>
</g>
<defs>
<filter id="filter0_d_7_94" x="0.828297" y="-10.1717" width="152.185" height="151.771" filterUnits="userSpaceOnUse" color-interpolation-filters="sRGB">
<feFlood flood-opacity="0" result="BackgroundImageFix"/>
<feColorMatrix in="SourceAlpha" type="matrix" values="0 0 0 0 0 0 0 0 0 0 0 0 0 0 0 0 0 0 127 0" result="hardAlpha"/>
<feMorphology radius="2.9062" operator="dilate" in="SourceAlpha" result="effect1_dropShadow_7_94"/>
<feOffset/>
<feGaussianBlur stdDeviation="3.63275"/>
<feColorMatrix type="matrix" values="0 0 0 0 0 0 0 0 0 1 0 0 0 0 0.407843 0 0 0 1 0"/>
<feBlend mode="normal" in2="BackgroundImageFix" result="effect1_dropShadow_7_94"/>
<feBlend mode="normal" in="SourceGraphic" in2="effect1_dropShadow_7_94" result="shape"/>
</filter>
<linearGradient id="paint0_linear_7_94" x1="11.0002" y1="65.7179" x2="142.841" y2="65.7179" gradientUnits="userSpaceOnUse">
<stop stop-color="#8FFF70"/>
<stop offset="1" stop-color="#8FFFFF"/>
</linearGradient>
<linearGradient id="paint1_linear_7_94" x1="44" y1="65.0877" x2="111" y2="65.0877" gradientUnits="userSpaceOnUse">
<stop stop-color="#8FFF73"/>
<stop offset="1" stop-color="#8FFFF9"/>
</linearGradient>
<clipPath id="clip0_7_94">
<rect width="131.841" height="131.427" fill="white" transform="translate(11)"/>
</clipPath>
</defs>
</svg>
