<svg width="184" height="63" viewBox="0 0 184 63" fill="none" xmlns="http://www.w3.org/2000/svg">
<path d="M25.0315 1.89327C18.9978 6.51278 13.3894 11.6626 8.27324 17.2813C9.67268 19.9925 10.3534 21.3364 11.6944 24.0009C11.7147 24.0284 11.7323 24.0577 11.747 24.0886C14.6744 29.9726 17.5697 35.8772 20.4621 41.7788C21.5606 44.0225 22.9688 45.346 24.228 45.3314C25.3528 45.3314 26.6003 44.2709 27.6726 42.442C28.6805 44.4345 29.186 45.4307 30.2056 47.4087C29.4837 48.3227 28.5658 49.0628 27.5195 49.5746C26.4733 50.0863 25.3255 50.3565 24.1608 50.3653C20.3131 50.3799 17.3798 47.4437 15.8898 44.119C12.2378 36.5228 8.58585 28.953 4.81408 21.4212C4.04668 22.3911 3.28998 23.3776 2.54401 24.3807C0.0197552 28.2956 0.0197552 33.7999 2.54401 37.7148C9.03048 46.1618 16.5933 53.7246 25.0402 60.2111C28.9552 62.7353 34.4594 62.7353 38.3743 60.2111C46.8213 53.7246 54.3841 46.1618 60.8706 37.7148C63.3948 33.797 63.3919 28.2986 60.8706 24.3807C60.1226 23.3757 59.3659 22.397 58.6005 21.4328C54.8375 28.9676 51.1767 36.5491 47.5218 44.1365C46.0289 47.4525 43.0956 50.3945 39.2479 50.3799C35.9407 50.2309 33.1885 48.1011 31.5641 45.311C31.5626 45.3187 31.5626 45.3266 31.5641 45.3343C30.4948 43.2454 29.9631 42.2024 28.9084 40.1164L28.3241 38.9477C28.2984 38.9174 28.275 38.8851 28.254 38.8513C28.0553 38.454 27.9618 38.267 27.7544 37.8638C26.0462 34.4729 24.3527 31.0887 22.6737 27.7113C21.6815 26.0591 21.148 24.1722 21.1282 22.245C21.1253 22.1905 21.1253 22.1359 21.1282 22.0814C21.1633 16.3113 25.9956 11.777 31.6956 11.7741C37.4716 11.7741 42.3185 16.3989 42.263 22.245C42.263 22.2947 42.263 22.3444 42.263 22.394C42.219 24.1942 41.728 25.9552 40.8343 27.5185C39.0814 30.8647 37.3382 34.2119 35.6047 37.56C34.5062 35.4009 33.9598 34.3229 32.8701 32.1726C34.2695 29.3825 34.9649 27.986 36.376 25.19C36.4023 25.1433 36.4256 25.0965 36.4549 25.0498C36.9435 24.209 37.2043 23.2554 37.2116 22.283C37.2116 22.248 37.2116 22.2129 37.2116 22.1778C37.1976 20.7157 36.6034 19.319 35.5596 18.2949C34.5159 17.2709 33.1081 16.7034 31.6459 16.7174C30.1838 16.7313 28.7871 17.3256 27.763 18.3693C26.739 19.4131 26.1715 20.8209 26.1855 22.283C26.1855 22.3239 26.1855 22.3619 26.1855 22.3999C26.212 23.3812 26.4983 24.3379 27.0152 25.1725C27.0556 25.2378 27.0926 25.305 27.1262 25.3741C28.2335 27.574 28.7799 28.6725 29.8784 30.8666H29.855C31.3684 33.8583 32.8857 36.8491 34.4068 39.8388V39.8593C34.7837 40.613 34.9707 40.987 35.3505 41.7408L35.3797 41.7934C36.5075 43.9816 37.9332 45.2993 39.1778 45.3168C40.4224 45.3343 41.8481 44.0079 42.9466 41.7671C46.9638 33.5866 50.981 25.3887 55.1384 17.2667C50.0185 11.6509 44.405 6.50578 38.3656 1.89327C36.362 0.655557 34.0535 0 31.6985 0C29.3435 0 27.035 0.655557 25.0315 1.89327Z" fill="url(#paint0_linear_3_87)"/>
<path d="M87.1911 19.8464C87.2977 19.5756 87.4908 19.3476 87.7404 19.1978C87.9938 19.037 88.2875 18.9509 88.5876 18.9495C88.7982 18.9426 89.0077 18.9814 89.2018 19.0631C89.396 19.1448 89.5702 19.2675 89.7125 19.4228C89.9771 19.6981 90.1275 20.0635 90.1332 20.4454C90.1309 20.6492 90.0798 20.8496 89.9842 21.0297C89.889 21.2157 89.8146 21.4117 89.7621 21.614C89.6423 21.9646 89.4349 22.5314 89.1369 23.3085C88.8389 24.0857 88.4474 25.1316 87.9683 26.4288C87.4891 27.7259 86.8785 29.3504 86.1481 31.3166L88.4416 37.5512L95.1612 19.8435C95.2649 19.5709 95.4587 19.342 95.7105 19.1949C95.9638 19.0338 96.2575 18.9477 96.5577 18.9466C96.7678 18.9401 96.9767 18.9791 97.1703 19.0608C97.364 19.1424 97.5377 19.2649 97.6796 19.4199C97.9512 19.6954 98.107 20.0644 98.1149 20.4512C98.1112 20.6549 98.0602 20.8549 97.9659 21.0355C97.9309 21.1056 97.8053 21.4445 97.592 22.061C97.3787 22.6774 96.9755 23.7672 96.3941 25.3273C95.8127 26.8875 95.0151 29.0114 94.0013 31.6876C92.9876 34.3638 91.6816 37.7674 90.0864 41.8869C89.9657 42.2289 89.7655 42.5373 89.5021 42.7867C89.1824 43.0258 88.7907 43.1486 88.3917 43.1348C87.9927 43.121 87.6104 42.9714 87.308 42.7108C87.0555 42.482 86.8561 42.2008 86.7237 41.8869C86.2913 40.7182 85.892 39.5964 85.5258 38.5212C85.1597 37.4461 84.8178 36.442 84.5003 35.5091C84.1361 36.4401 83.7622 37.4461 83.3785 38.5271C82.9948 39.608 82.5711 40.7299 82.1076 41.8927C81.988 42.2353 81.7876 42.544 81.5232 42.7926C81.2244 43.043 80.84 43.1677 80.451 43.1402C80.2451 43.1489 80.0396 43.1159 79.8468 43.0431C79.654 42.9703 79.4779 42.8592 79.3291 42.7166C79.0788 42.486 78.8797 42.2053 78.7448 41.8927C77.3483 38.0713 76.168 34.8371 75.2039 32.1901C74.2397 29.5432 73.4606 27.4153 72.8666 25.8065C72.2706 24.1937 71.8392 23.0251 71.5723 22.3006C71.3035 21.5702 71.1721 21.1874 71.1721 21.1524C71.0438 20.865 70.9969 20.5479 71.0366 20.2356C71.0763 19.9234 71.2009 19.6281 71.397 19.3819C71.5333 19.2363 71.7001 19.1228 71.8855 19.0496C72.0709 18.9763 72.2703 18.9451 72.4693 18.9583C72.8019 18.9505 73.1299 19.0365 73.4158 19.2066C73.6712 19.3503 73.8708 19.5756 73.9826 19.8464L80.4656 37.5542L82.8613 31.2698C82.1952 29.4721 81.6294 27.9344 81.1639 26.6566C80.6994 25.377 80.3196 24.3369 80.0157 23.5393C79.7119 22.7417 79.5015 22.1486 79.37 21.7659C79.2904 21.563 79.2241 21.3551 79.1714 21.1436C79.0655 20.9264 79.0134 20.6869 79.0194 20.4454C79.0046 20.0531 79.1393 19.6698 79.3963 19.3731C79.5321 19.2278 79.6985 19.1144 79.8834 19.0411C80.0683 18.9679 80.2672 18.9366 80.4656 18.9495C80.7991 18.9418 81.1281 19.0278 81.4152 19.1978C81.6646 19.3469 81.857 19.5752 81.9615 19.8464L84.5003 27.0803L87.1911 19.8464Z" fill="white"/>
<path d="M123.357 38.603C122.216 39.8697 120.876 40.9423 119.39 41.7788C117.864 42.6552 116.133 43.1119 114.374 43.1023C111.214 43.1276 108.17 41.9093 105.901 39.7103C104.793 38.6297 103.911 37.3384 103.31 35.9122C102.666 34.3998 102.342 32.7703 102.36 31.1267C102.352 29.5101 102.666 27.9081 103.283 26.4142C103.873 24.9703 104.737 23.6547 105.828 22.5401C106.924 21.4314 108.229 20.5506 109.667 19.9487C111.188 19.3044 112.824 18.9783 114.476 18.9904C116.049 18.9856 117.605 19.3173 119.039 19.9633C121.915 21.2362 124.208 23.5412 125.467 26.4229C126.117 27.8952 126.45 29.488 126.443 31.0975V41.6152C126.452 41.824 126.418 42.0325 126.345 42.2281C126.271 42.4237 126.159 42.6023 126.014 42.7533C125.87 42.9043 125.696 43.0244 125.504 43.1065C125.312 43.1885 125.105 43.2309 124.896 43.2309C124.687 43.2309 124.48 43.1885 124.288 43.1065C124.095 43.0244 123.922 42.9043 123.777 42.7533C123.633 42.6023 123.52 42.4237 123.447 42.2281C123.373 42.0325 123.34 41.824 123.349 41.6152L123.357 38.603ZM123.357 31.1208C123.366 29.9165 123.127 28.7233 122.656 27.6149C121.758 25.4479 120.037 23.7258 117.871 22.8264C116.762 22.3569 115.569 22.1193 114.365 22.1282C113.174 22.1194 111.994 22.3571 110.9 22.8264C108.748 23.7389 107.038 25.4577 106.138 27.6149C105.667 28.7235 105.43 29.9167 105.439 31.1208C105.431 32.3116 105.668 33.4914 106.138 34.5858C107.051 36.729 108.757 38.4363 110.9 39.3509C111.985 39.806 113.15 40.0423 114.327 40.0463C115.505 40.0503 116.671 39.8219 117.76 39.3743C119.89 38.4808 121.596 36.8018 122.522 34.6852C123.015 33.5583 123.294 32.3497 123.346 31.1208" fill="white"/>
<path d="M144.752 19.0488C145.975 19.0255 147.191 19.2235 148.343 19.6332C149.307 19.9823 150.228 20.4421 151.086 21.0034C151.749 21.4301 152.346 21.9518 152.857 22.5518C153.272 23.066 153.482 23.4575 153.482 23.7205C153.482 23.9017 153.442 24.0807 153.364 24.2445C153.286 24.4082 153.173 24.5526 153.032 24.667C152.763 24.9221 152.407 25.0652 152.036 25.0673C151.832 25.0711 151.629 25.0331 151.44 24.9557C151.251 24.8784 151.08 24.7632 150.937 24.6174C150.092 23.8766 149.132 23.2786 148.095 22.8469C147.002 22.4041 145.832 22.1856 144.653 22.2041C143.46 22.1899 142.277 22.4237 141.179 22.8907C139.026 23.8016 137.316 25.5194 136.414 27.6763C135.946 28.7855 135.709 29.9783 135.716 31.1822C135.708 32.3729 135.946 33.5524 136.414 34.6472C137.33 36.787 139.037 38.4901 141.179 39.4006C143.387 40.3236 145.871 40.332 148.086 39.424C149.141 38.9821 150.105 38.3481 150.928 37.5542C151.071 37.4078 151.242 37.2922 151.431 37.2148C151.62 37.1374 151.823 37.0998 152.027 37.1042C152.425 37.1045 152.808 37.256 153.099 37.5279C153.253 37.661 153.375 37.8264 153.457 38.0123C153.54 38.1981 153.58 38.3998 153.575 38.603C153.575 38.866 153.38 39.2575 152.991 39.7717C152.513 40.3756 151.931 40.89 151.273 41.2909C150.393 41.8427 149.445 42.2796 148.454 42.591C147.219 42.9719 145.931 43.1563 144.638 43.1373C141.478 43.1642 138.434 41.9457 136.166 39.7454C135.056 38.6649 134.174 37.3736 133.571 35.9473C132.929 34.4345 132.606 32.8053 132.622 31.1617C132.611 29.593 132.912 28.0377 133.507 26.5863C134.103 25.1348 134.981 23.8161 136.09 22.7067C137.197 21.6088 138.5 20.7288 139.932 20.1123C141.453 19.453 143.086 19.0891 144.743 19.0401" fill="white"/>
<path d="M171.388 18.9904C172.96 18.9892 174.514 19.3239 175.946 19.972C178.821 21.2449 181.115 23.5499 182.373 26.4317C183.012 27.8984 183.344 29.4801 183.349 31.0798C183.354 32.6795 183.032 34.2633 182.403 35.734C181.784 37.1514 180.913 38.4443 179.832 39.5496C178.715 40.682 177.383 41.5788 175.913 42.1871C174.444 42.7953 172.868 43.1025 171.277 43.0906C168.118 43.1143 165.075 41.8962 162.805 39.6986C161.697 38.6172 160.816 37.3261 160.213 35.9005C159.265 33.6936 158.998 31.2534 159.446 28.8935C159.895 26.5336 161.039 24.3617 162.732 22.657C163.838 21.561 165.14 20.6821 166.571 20.0655C168.094 19.4065 169.729 19.0417 171.388 18.9904ZM171.289 22.134C170.097 22.1249 168.916 22.3626 167.821 22.8323C165.669 23.7456 163.959 25.4641 163.056 27.6208C162.589 28.7303 162.353 29.923 162.361 31.1267C162.354 32.317 162.59 33.4961 163.056 34.5917C163.972 36.7338 165.679 38.4404 167.821 39.3568C168.917 39.824 170.098 40.0607 171.289 40.0521C172.493 40.0607 173.686 39.8241 174.795 39.3568C176.952 38.454 178.67 36.7439 179.583 34.5917C180.053 33.4972 180.29 32.3175 180.282 31.1267C180.291 29.9226 180.054 28.7293 179.583 27.6208C178.677 25.4543 176.949 23.7355 174.777 22.841C173.669 22.3713 172.476 22.1337 171.271 22.1428" fill="white"/>
<path d="M86.0312 57.4239V49.9592H88.1348C88.7354 49.947 89.3284 50.0953 89.8527 50.3887C90.3505 50.673 90.7523 51.0992 91.0067 51.6128C91.2868 52.1782 91.428 52.8021 91.4187 53.433V53.9092C91.4335 54.5493 91.2942 55.1836 91.0126 55.7586C90.7546 56.2731 90.3473 56.6977 89.8439 56.9769C89.3059 57.2681 88.7027 57.4179 88.091 57.4122L86.0312 57.4239ZM87.0129 50.7743V56.6175H88.0472C88.3755 56.636 88.704 56.5823 89.0094 56.4602C89.3148 56.338 89.5897 56.1504 89.8147 55.9105C90.2354 55.4401 90.4487 54.7682 90.4487 53.8975V53.4651C90.4935 52.7561 90.2809 52.0548 89.8498 51.4901C89.6397 51.2513 89.3786 51.063 89.0857 50.939C88.7928 50.8151 88.4758 50.7588 88.1582 50.7743H87.0129Z" fill="white"/>
<path d="M94.051 50.415C94.0472 50.2725 94.0973 50.1337 94.1912 50.0264C94.3065 49.9246 94.4551 49.8683 94.609 49.8683C94.7629 49.8683 94.9115 49.9246 95.0268 50.0264C95.1236 50.1324 95.176 50.2715 95.1729 50.415C95.165 50.5251 95.1262 50.6307 95.0609 50.7196C94.9956 50.8085 94.9064 50.8771 94.8037 50.9175C94.701 50.9578 94.589 50.9683 94.4806 50.9476C94.3722 50.9269 94.2719 50.876 94.1912 50.8007C94.0964 50.6951 94.0461 50.5569 94.051 50.415ZM95.0735 57.4268H94.1415V51.8758H95.0881L95.0735 57.4268Z" fill="white"/>
<path d="M97.6475 54.6075C97.6118 53.8779 97.8227 53.1575 98.2464 52.5624C98.4364 52.3274 98.6756 52.137 98.9472 52.0046C99.2188 51.8723 99.5162 51.8013 99.8183 51.7965C100.12 51.7918 100.42 51.8535 100.696 51.9772C100.971 52.101 101.216 52.2838 101.413 52.5127L101.46 51.8992H102.337V57.3041C102.354 57.6153 102.306 57.9267 102.197 58.2185C102.087 58.5102 101.918 58.7759 101.7 58.9986C101.469 59.2084 101.198 59.3697 100.903 59.4731C100.609 59.5765 100.296 59.6198 99.9848 59.6005C99.5817 59.5987 99.1835 59.5121 98.8161 59.3463C98.4643 59.1989 98.1607 58.956 97.9397 58.6451L98.4334 58.0608C98.605 58.2941 98.8289 58.4839 99.0872 58.6148C99.3455 58.7457 99.6309 58.8141 99.9205 58.8146C100.117 58.8254 100.314 58.7963 100.5 58.7291C100.685 58.6618 100.855 58.5577 100.999 58.4231C101.134 58.2765 101.237 58.1041 101.304 57.9164C101.371 57.7286 101.399 57.5293 101.387 57.3304V56.8542C101.194 57.072 100.954 57.2438 100.686 57.357C100.417 57.4703 100.127 57.5221 99.8358 57.5086C99.5295 57.5155 99.2261 57.4478 98.9518 57.3114C98.6775 57.175 98.4404 56.974 98.261 56.7256C97.829 56.1064 97.6133 55.3618 97.6475 54.6075ZM98.6 54.7156C98.5738 55.2304 98.7075 55.7406 98.9827 56.1764C99.1026 56.3486 99.264 56.4878 99.4519 56.5812C99.6398 56.6746 99.8481 56.7193 100.058 56.711C100.334 56.7216 100.606 56.6497 100.841 56.5045C101.076 56.3593 101.262 56.1474 101.375 55.8959V53.3687C101.257 53.1246 101.071 52.9197 100.84 52.7788C100.608 52.6378 100.341 52.5667 100.07 52.5741C99.8587 52.5657 99.6491 52.6105 99.4602 52.7045C99.2713 52.7984 99.1091 52.9385 98.9885 53.1116C98.6968 53.5933 98.563 54.1541 98.6058 54.7156H98.6Z" fill="white"/>
<path d="M105.054 50.4149C105.05 50.2724 105.1 50.1336 105.194 50.0264C105.248 49.9715 105.313 49.929 105.386 49.9018C105.458 49.8746 105.535 49.8632 105.612 49.8686C105.689 49.8634 105.767 49.8748 105.839 49.902C105.912 49.9292 105.978 49.9716 106.032 50.0264C106.129 50.1326 106.18 50.2718 106.176 50.4149C106.181 50.5574 106.129 50.6961 106.032 50.8006C105.977 50.854 105.911 50.8952 105.838 50.9213C105.766 50.9475 105.689 50.9581 105.612 50.9525C105.535 50.9581 105.459 50.9474 105.387 50.9212C105.315 50.8951 105.249 50.8539 105.194 50.8006C105.099 50.695 105.049 50.5568 105.054 50.4149ZM106.079 57.4268H105.133V51.8757H106.079V57.4268Z" fill="white"/>
<path d="M110.167 50.5435V51.8845H111.201V52.6178H110.167V56.0566C110.153 56.2344 110.203 56.4112 110.307 56.5561C110.368 56.6169 110.442 56.6634 110.523 56.6921C110.605 56.7209 110.691 56.7314 110.777 56.7227C110.929 56.7172 111.079 56.6966 111.227 56.6613V57.4239C110.99 57.49 110.746 57.5243 110.5 57.5261C110.321 57.5391 110.143 57.5111 109.977 57.4442C109.811 57.3774 109.663 57.2735 109.544 57.1405C109.31 56.8275 109.195 56.441 109.22 56.0507V52.6178H108.212V51.8845H109.22V50.5435H110.167Z" fill="white"/>
<path d="M117.015 57.4239C116.942 57.2367 116.898 57.0398 116.883 56.8396C116.683 57.0583 116.439 57.2325 116.167 57.3507C115.896 57.469 115.602 57.5288 115.306 57.5261C114.815 57.5455 114.335 57.3797 113.962 57.0616C113.794 56.9175 113.659 56.738 113.569 56.5359C113.479 56.3339 113.434 56.1143 113.439 55.893C113.428 55.632 113.482 55.3724 113.597 55.1378C113.712 54.9031 113.883 54.7008 114.096 54.549C114.647 54.1998 115.294 54.0332 115.945 54.0728H116.869V53.6375C116.877 53.4926 116.855 53.3475 116.805 53.2113C116.754 53.0751 116.677 52.9507 116.576 52.8457C116.457 52.7416 116.318 52.6621 116.167 52.612C116.017 52.5618 115.858 52.542 115.7 52.5536C115.397 52.5427 115.099 52.6332 114.853 52.8107C114.748 52.8774 114.662 52.9688 114.602 53.0769C114.542 53.185 114.51 53.3064 114.508 53.4301H113.556C113.561 53.1381 113.664 52.8562 113.848 52.6295C114.057 52.3604 114.331 52.1493 114.645 52.016C114.995 51.8637 115.374 51.787 115.755 51.7911C116.297 51.76 116.831 51.9307 117.254 52.2702C117.437 52.4368 117.582 52.6406 117.679 52.8679C117.776 53.0952 117.824 53.3407 117.818 53.5878V56.1384C117.802 56.5513 117.868 56.9633 118.011 57.3508V57.4326L117.015 57.4239ZM115.443 56.7022C115.741 56.7011 116.033 56.6215 116.29 56.4714C116.539 56.3396 116.743 56.136 116.874 55.8871V54.7506H116.129C114.961 54.7506 114.381 55.0905 114.391 55.7702C114.385 55.9006 114.408 56.0307 114.459 56.151C114.509 56.2712 114.586 56.3787 114.683 56.4656C114.9 56.6325 115.17 56.7164 115.443 56.7022Z" fill="white"/>
<path d="M121.605 57.4239H120.67V49.5619H121.605V57.4239Z" fill="white"/>
<path d="M132.569 55.4723H129.446L128.745 57.4239H127.74L130.58 49.9592H131.439L134.29 57.4122H133.291L132.569 55.4723ZM129.744 54.6688H132.277L131.009 51.1834L129.744 54.6688Z" fill="white"/>
<path d="M136.212 54.6075C136.177 53.8779 136.388 53.1575 136.811 52.5624C137.001 52.3274 137.241 52.137 137.512 52.0046C137.784 51.8723 138.081 51.8013 138.383 51.7965C138.685 51.7918 138.985 51.8535 139.26 51.9772C139.536 52.101 139.781 52.2838 139.978 52.5127L140.025 51.8992H140.902V57.3041C140.918 57.6153 140.87 57.9265 140.761 58.2182C140.651 58.5098 140.482 58.7756 140.265 58.9986C140.034 59.2084 139.763 59.3697 139.468 59.4731C139.174 59.5765 138.861 59.6198 138.55 59.6005C138.147 59.5993 137.748 59.5127 137.381 59.3463C137.029 59.1989 136.726 58.956 136.505 58.6451L136.995 58.0608C137.167 58.2943 137.392 58.4842 137.651 58.6151C137.909 58.746 138.195 58.8144 138.485 58.8146C138.682 58.8254 138.879 58.7963 139.065 58.7291C139.25 58.6618 139.42 58.5577 139.564 58.4231C139.698 58.2763 139.802 58.1039 139.868 57.9161C139.934 57.7283 139.962 57.5291 139.949 57.3304V56.8542C139.756 57.072 139.516 57.2438 139.248 57.357C138.979 57.4703 138.689 57.5221 138.398 57.5086C138.092 57.5153 137.788 57.4475 137.514 57.3111C137.24 57.1747 137.003 56.9738 136.823 56.7256C136.392 56.1061 136.177 55.3615 136.212 54.6075ZM137.162 54.7156C137.135 55.2308 137.27 55.7416 137.548 56.1764C137.667 56.3488 137.829 56.4881 138.017 56.5816C138.205 56.675 138.413 56.7196 138.623 56.711C138.898 56.721 139.17 56.6488 139.404 56.5036C139.638 56.3585 139.824 56.1469 139.937 55.8959V53.3687C139.82 53.1241 139.634 52.9189 139.402 52.7778C139.171 52.6368 138.903 52.566 138.632 52.5741C138.421 52.5659 138.212 52.6109 138.024 52.7048C137.835 52.7988 137.674 52.9387 137.553 53.1116C137.258 53.592 137.12 54.1529 137.159 54.7156H137.162Z" fill="white"/>
<path d="M145.903 57.5262C145.563 57.5388 145.223 57.4795 144.907 57.3522C144.591 57.2248 144.305 57.0322 144.069 56.787C143.581 56.2468 143.328 55.5356 143.364 54.8091V54.6338C143.358 54.1296 143.465 53.6303 143.677 53.173C143.871 52.7613 144.174 52.4107 144.554 52.1592C144.917 51.9203 145.343 51.7934 145.778 51.794C146.094 51.7767 146.409 51.8319 146.7 51.9555C146.992 52.079 147.251 52.2677 147.458 52.5069C147.859 52.9802 148.058 53.6619 148.057 54.552V54.9259H144.311C144.301 55.4113 144.471 55.8832 144.79 56.2494C144.936 56.4138 145.117 56.544 145.319 56.6308C145.52 56.7177 145.739 56.759 145.959 56.7519C146.255 56.7622 146.549 56.6915 146.809 56.5474C147.045 56.4088 147.251 56.2252 147.417 56.0069L148.001 56.4569C147.777 56.8048 147.465 57.0871 147.097 57.2749C146.728 57.4628 146.316 57.5495 145.903 57.5262ZM145.784 52.5595C145.603 52.5566 145.423 52.5923 145.258 52.6644C145.092 52.7365 144.943 52.8431 144.822 52.9773C144.541 53.3054 144.372 53.7149 144.34 54.1459H147.116V54.0728C147.116 53.6668 146.979 53.2727 146.727 52.9539C146.609 52.8226 146.463 52.7191 146.3 52.6509C146.136 52.5827 145.96 52.5515 145.784 52.5595Z" fill="white"/>
<path d="M151.343 51.8845L151.373 52.5799C151.566 52.3249 151.817 52.1196 152.106 51.9809C152.395 51.8422 152.712 51.7741 153.032 51.7823C154.201 51.7823 154.791 52.4425 154.802 53.7631V57.4239H153.856V53.7573C153.877 53.441 153.779 53.1284 153.581 52.8808C153.47 52.7766 153.338 52.6969 153.194 52.6466C153.05 52.5963 152.898 52.5765 152.746 52.5886C152.457 52.5833 152.174 52.6691 151.936 52.834C151.71 52.9975 151.527 53.2143 151.405 53.4651V57.4122H150.458V51.8612L151.343 51.8845Z" fill="white"/>
<path d="M159.743 56.7519C160.062 56.7548 160.372 56.6463 160.619 56.4451C160.739 56.3531 160.838 56.2374 160.91 56.1051C160.983 55.9728 161.027 55.827 161.04 55.6768H161.934C161.913 56.0045 161.8 56.3196 161.607 56.5854C161.399 56.8769 161.122 57.1119 160.801 57.269C160.471 57.4393 160.105 57.5275 159.734 57.5261C159.397 57.5414 159.06 57.4814 158.749 57.3506C158.438 57.2197 158.159 57.0212 157.934 56.7694C157.462 56.1892 157.224 55.4537 157.265 54.7068V54.5461C157.255 54.0512 157.354 53.5601 157.558 53.1087C157.741 52.7064 158.037 52.3662 158.411 52.13C158.806 51.8914 159.261 51.7708 159.722 51.7823C160.291 51.7634 160.845 51.9631 161.271 52.3403C161.476 52.5248 161.64 52.75 161.753 53.0015C161.867 53.253 161.926 53.5253 161.928 53.8011H161.046C161.027 53.4674 160.88 53.1537 160.637 52.9246C160.517 52.81 160.375 52.7203 160.22 52.6606C160.065 52.601 159.9 52.5725 159.734 52.577C159.52 52.567 159.306 52.6091 159.111 52.6996C158.916 52.7902 158.746 52.9265 158.615 53.097C158.323 53.5413 158.184 54.0683 158.218 54.5987V54.7798C158.187 55.2967 158.326 55.8094 158.612 56.2406C158.745 56.411 158.918 56.5466 159.115 56.6356C159.312 56.7247 159.527 56.7646 159.743 56.7519Z" fill="white"/>
<path d="M166.109 56.0361L167.4 51.8845H168.411L166.185 58.277C165.84 59.2002 165.294 59.6589 164.543 59.6589H164.365L164.011 59.5917V58.8116L164.266 58.8321C164.53 58.8469 164.793 58.7784 165.016 58.6363C165.232 58.4496 165.387 58.2022 165.46 57.9264L165.668 57.3625L163.693 51.8845H164.727L166.109 56.0361Z" fill="white"/>
<defs>
<linearGradient id="paint0_linear_3_87" x1="61.0687" y1="31.0521" x2="0.650818" y2="31.0521" gradientUnits="userSpaceOnUse">
<stop stop-color="#00E6E3"/>
<stop offset="1" stop-color="#00FF68"/>
</linearGradient>
</defs>
</svg>
